<svg width="228" height="26" viewBox="0 0 228 26" fill="none" xmlns="http://www.w3.org/2000/svg">
<path d="M13.3632 11.87C14.4146 10.8427 15.0251 9.47306 15.0251 7.79519C15.0251 4.06279 12.0743 1.49463 7.9365 1.49463H0V24.0945H9.97149C14.3128 24.0945 17.3314 21.3551 17.3314 17.4515C17.3314 14.6779 15.8052 12.7603 13.3632 11.87ZM7.56341 5.46672C9.46275 5.46672 10.4802 6.45974 10.4802 8.03488C10.4802 9.57578 9.46275 10.6373 7.56341 10.6373H4.40916V5.46672H7.56341ZM9.63233 20.1224H4.40916V14.4382H9.63233C11.6334 14.4382 12.8205 15.5339 12.8205 17.2803C12.8205 19.0609 11.6334 20.1224 9.63233 20.1224Z" fill="white"></path>
<path d="M39.1769 1.49463H34.5982V15.0888C34.5982 18.4787 32.4953 20.2251 29.6803 20.2251C26.8991 20.2251 24.7623 18.4787 24.7623 15.0888V1.49463H20.1836V14.7464C20.1836 20.8072 24.2197 24.5054 29.6803 24.5054C35.1069 24.5054 39.1769 20.8072 39.1769 14.7464V1.49463Z" fill="white"></path>
<path d="M48.0358 1.49463H43.457V24.0945H48.0358V1.49463Z" fill="white"></path>
<path d="M57.0621 1.49463H52.4834V24.0945H66.864V19.9169H57.0621V1.49463Z" fill="white"></path>
<path d="M76.9174 1.49463H69.5914V24.0945H76.9174C84.1077 24.0945 89.1274 19.4033 89.1274 12.7261C89.1274 5.94611 84.1077 1.49463 76.9174 1.49463ZM76.8835 5.67217C81.3944 5.67217 84.413 8.27458 84.413 12.7261C84.413 17.0748 81.3944 19.9169 76.8835 19.9169H74.1702V5.67217H76.8835Z" fill="white"></path>
<path d="M103.536 9.64245L99.4698 8.08464L103.637 6.2908V5.94147L99.4698 4.15707L103.536 2.59926V1.49463L97.4183 3.92104V4.26092L101.685 6.12085L97.4183 7.98078V8.31123L103.536 10.7376V9.64245Z" fill="white"></path>
<path d="M103.536 12.671V11.6703H97.5186V12.671H103.536Z" fill="white"></path>
<path d="M103.536 18.6234V13.4212H102.67V15.5172H97.5186V16.518H102.67V18.6234H103.536Z" fill="white"></path>
<path d="M103.536 24.5054V23.5046H101.138V20.3701H103.536V19.3693L97.5186 19.3693V20.3701H100.272V23.5046H97.5186V24.5054L103.536 24.5054Z" fill="white"></path>
<path d="M198.555 7.12093C197.101 7.12093 195.705 7.72047 194.691 8.77334V3.20192C194.691 3.02644 194.544 2.88021 194.368 2.88021H192.399C192.223 2.88021 192.076 3.02644 192.076 3.20192V18.2638C192.076 18.4393 192.223 18.5855 192.399 18.5855H194.368C194.544 18.5855 194.691 18.4393 194.691 18.2638V17.2255C195.705 18.2784 197.086 18.878 198.555 18.878C201.626 18.878 204.109 16.2458 204.109 12.9994C204.109 9.7531 201.626 7.12093 198.555 7.12093ZM198.1 16.5236C196.234 16.5236 194.72 14.9736 194.706 13.0433V12.9556C194.735 11.0253 196.234 9.47526 198.1 9.47526C199.98 9.47526 201.494 11.0546 201.494 12.9994C201.494 14.9443 199.966 16.5236 198.1 16.5236Z" fill="white"></path>
<path d="M211.353 7.12104C208.032 7.12104 205.344 9.75321 205.344 12.9996C205.344 16.2459 208.032 18.8781 211.353 18.8781C214.673 18.8781 217.362 16.2459 217.362 12.9996C217.362 9.75321 214.673 7.12104 211.353 7.12104ZM211.338 16.5237C209.458 16.5237 207.944 14.9444 207.944 12.9996C207.944 11.0547 209.472 9.47537 211.338 9.47537C213.204 9.47537 214.732 11.0547 214.732 12.9996C214.732 14.9444 213.204 16.5237 211.338 16.5237Z" fill="white"></path>
<path d="M174.607 7.4135H172.638C172.461 7.4135 172.314 7.55974 172.314 7.73521V8.77346C171.301 7.72059 169.92 7.12104 168.45 7.12104C165.38 7.12104 162.896 9.75321 162.896 12.9996C162.896 16.2459 165.38 18.8781 168.45 18.8781C169.905 18.8781 171.301 18.2785 172.314 17.2257V18.2639C172.314 18.4394 172.461 18.5856 172.638 18.5856H174.607C174.783 18.5856 174.93 18.4394 174.93 18.2639V7.73521C174.93 7.55974 174.783 7.4135 174.607 7.4135ZM168.906 16.5237C167.025 16.5237 165.512 14.9444 165.512 12.9996C165.512 11.0547 167.04 9.47537 168.906 9.47537C170.772 9.47537 172.285 11.0254 172.3 12.9557V13.0434C172.285 14.9737 170.772 16.5237 168.906 16.5237Z" fill="white"></path>
<path d="M184.436 7.12104C182.982 7.12104 181.586 7.72059 180.572 8.77346V7.73521C180.572 7.55974 180.425 7.4135 180.249 7.4135H178.28C178.104 7.4135 177.957 7.55974 177.957 7.73521V22.7971C177.957 22.9726 178.104 23.1188 178.28 23.1188H180.249C180.425 23.1188 180.572 22.9726 180.572 22.7971V17.2257C181.586 18.2785 182.967 18.8781 184.436 18.8781C187.507 18.8781 189.99 16.2459 189.99 12.9996C189.99 9.75321 187.507 7.12104 184.436 7.12104ZM183.981 16.5237C182.115 16.5237 180.601 14.9737 180.587 13.0434V12.9557C180.616 11.0254 182.115 9.47537 183.981 9.47537C185.861 9.47537 187.375 11.0547 187.375 12.9996C187.375 14.9444 185.861 16.5237 183.981 16.5237Z" fill="white"></path>
<path d="M157.005 7.12097C155.535 7.13559 154.198 7.98374 153.567 9.31445C152.847 7.95449 151.407 7.10635 149.864 7.12097C148.659 7.12097 147.528 7.7059 146.823 8.67103V7.73514C146.823 7.55967 146.676 7.41343 146.499 7.41343H144.531C144.354 7.41343 144.207 7.55967 144.207 7.73514V18.2638C144.207 18.4393 144.354 18.5855 144.531 18.5855H146.499C146.676 18.5855 146.823 18.4393 146.823 18.2638V11.9612C146.896 10.5574 147.881 9.43143 149.085 9.43143C150.334 9.43143 151.377 10.4697 151.377 11.8296V18.2638C151.377 18.4393 151.524 18.5855 151.701 18.5855H153.684C153.86 18.5855 154.007 18.4393 154.007 18.2638L153.993 11.7126C154.169 10.4258 155.095 9.43143 156.226 9.43143C157.475 9.43143 158.518 10.4697 158.518 11.8296V18.2638C158.518 18.4393 158.665 18.5855 158.841 18.5855H160.825C161.001 18.5855 161.148 18.4393 161.148 18.2638L161.133 11.0254C161.133 8.86113 159.282 7.12097 157.005 7.12097Z" fill="white"></path>
<path d="M227.956 18.1322L224.547 12.9702L227.927 7.85211C228.015 7.7205 227.971 7.5304 227.838 7.44266C227.794 7.41342 227.736 7.39879 227.677 7.39879H225.399C225.223 7.39879 225.061 7.48653 224.973 7.63276L222.99 10.9522L221.006 7.64739C220.918 7.50116 220.756 7.41342 220.58 7.41342H218.303C218.141 7.41342 218.009 7.54503 218.009 7.70588C218.009 7.76437 218.024 7.82287 218.053 7.86673L221.432 12.9848L218.024 18.1468C217.935 18.2784 217.98 18.4685 218.112 18.5563C218.156 18.5855 218.215 18.6001 218.273 18.6001H220.551C220.727 18.6001 220.889 18.5124 220.977 18.3662L223.004 15.0028L225.032 18.3662C225.12 18.5124 225.282 18.6001 225.458 18.6001H227.706C227.868 18.6001 228 18.4685 228 18.3077C228 18.2492 227.985 18.1907 227.956 18.1322Z" fill="white"></path>
<path d="M124.989 0C117.775 0 111.927 5.82002 111.927 13C111.927 20.18 117.775 26 124.989 26C132.203 26 138.051 20.18 138.051 13C138.051 5.82002 132.203 0 124.989 0ZM131.19 16.1878C126.723 20.6333 118.745 19.2148 118.745 19.2148C118.745 19.2148 117.305 11.2891 121.786 6.82902C124.269 4.3577 128.383 4.46007 130.984 7.03375C133.585 9.60742 133.673 13.7165 131.19 16.1878Z" fill="white"></path>
<path d="M126.488 7.61813L125.21 10.2357L122.58 11.5079L125.21 12.7801L126.488 15.3977L127.766 12.7801L130.396 11.5079L127.766 10.2357L126.488 7.61813Z" fill="white"></path>
</svg>